<mxfile host="Electron" modified="2023-05-10T14:50:40.539Z" agent="Mozilla/5.0 (Windows NT 10.0; Win64; x64) AppleWebKit/537.36 (KHTML, like Gecko) draw.io/21.2.1 Chrome/112.0.5615.87 Electron/24.1.2 Safari/537.36" etag="I9OQTtoyefS2T-jsi7oy" version="21.2.1" type="device">
  <diagram name="Page-1" id="dFiBX8K3LXu-QQknn_Lr">
    <mxGraphModel dx="2284" dy="-6856" grid="0" gridSize="10" guides="1" tooltips="1" connect="1" arrows="1" fold="1" page="1" pageScale="1" pageWidth="850" pageHeight="1100" math="0" shadow="0">
      <root>
        <mxCell id="0" />
        <mxCell id="1" parent="0" />
        <mxCell id="lm0oPZzjpv0PWrZdyHH7-52" value="" style="edgeStyle=orthogonalEdgeStyle;rounded=0;orthogonalLoop=1;jettySize=auto;html=1;" parent="1" source="INQnIz-XkQVQ4j8T7pWz-2" target="INQnIz-XkQVQ4j8T7pWz-5" edge="1">
          <mxGeometry relative="1" as="geometry" />
        </mxCell>
        <mxCell id="INQnIz-XkQVQ4j8T7pWz-2" value="&lt;font style=&quot;font-size: 12px;&quot;&gt;Start&lt;/font&gt;" style="rounded=1;whiteSpace=wrap;html=1;arcSize=37;fillColor=#dae8fc;strokeColor=#6c8ebf;fontFamily=Calibri;fontSize=12;" parent="1" vertex="1">
          <mxGeometry x="69.5" y="8487" width="110" height="40" as="geometry" />
        </mxCell>
        <mxCell id="lm0oPZzjpv0PWrZdyHH7-53" value="" style="edgeStyle=orthogonalEdgeStyle;rounded=0;orthogonalLoop=1;jettySize=auto;html=1;" parent="1" source="INQnIz-XkQVQ4j8T7pWz-5" target="lm0oPZzjpv0PWrZdyHH7-51" edge="1">
          <mxGeometry relative="1" as="geometry" />
        </mxCell>
        <mxCell id="INQnIz-XkQVQ4j8T7pWz-5" value="Set the desired Baud Rate" style="rounded=0;whiteSpace=wrap;html=1;fillColor=#d5e8d4;strokeColor=#82b366;fontFamily=Calibri;fontSize=12;" parent="1" vertex="1">
          <mxGeometry x="48.13" y="8572" width="153.5" height="83" as="geometry" />
        </mxCell>
        <mxCell id="lm0oPZzjpv0PWrZdyHH7-56" value="" style="edgeStyle=orthogonalEdgeStyle;rounded=0;orthogonalLoop=1;jettySize=auto;html=1;" parent="1" source="lm0oPZzjpv0PWrZdyHH7-51" target="lm0oPZzjpv0PWrZdyHH7-55" edge="1">
          <mxGeometry relative="1" as="geometry" />
        </mxCell>
        <mxCell id="lm0oPZzjpv0PWrZdyHH7-51" value="Set the Address of the Master" style="rounded=0;whiteSpace=wrap;html=1;fillColor=#d5e8d4;strokeColor=#82b366;fontFamily=Calibri;fontSize=12;" parent="1" vertex="1">
          <mxGeometry x="48.13" y="8679" width="153.5" height="83" as="geometry" />
        </mxCell>
        <mxCell id="lm0oPZzjpv0PWrZdyHH7-57" value="" style="edgeStyle=orthogonalEdgeStyle;rounded=0;orthogonalLoop=1;jettySize=auto;html=1;" parent="1" source="lm0oPZzjpv0PWrZdyHH7-55" edge="1">
          <mxGeometry relative="1" as="geometry">
            <mxPoint x="124.86666666666679" y="8908" as="targetPoint" />
          </mxGeometry>
        </mxCell>
        <mxCell id="lm0oPZzjpv0PWrZdyHH7-55" value="Wait until the TWNT Flage is set to one" style="rounded=0;whiteSpace=wrap;html=1;fillColor=#d5e8d4;strokeColor=#82b366;fontFamily=Calibri;fontSize=12;" parent="1" vertex="1">
          <mxGeometry x="47.75" y="8787" width="153.5" height="83" as="geometry" />
        </mxCell>
        <mxCell id="lm0oPZzjpv0PWrZdyHH7-58" value="" style="edgeStyle=orthogonalEdgeStyle;rounded=0;orthogonalLoop=1;jettySize=auto;html=1;" parent="1" source="lm0oPZzjpv0PWrZdyHH7-59" target="lm0oPZzjpv0PWrZdyHH7-62" edge="1">
          <mxGeometry relative="1" as="geometry" />
        </mxCell>
        <mxCell id="lm0oPZzjpv0PWrZdyHH7-59" value="&lt;font style=&quot;font-size: 12px;&quot;&gt;Start&lt;/font&gt;" style="rounded=1;whiteSpace=wrap;html=1;arcSize=37;fillColor=#dae8fc;strokeColor=#6c8ebf;fontFamily=Calibri;fontSize=12;" parent="1" vertex="1">
          <mxGeometry x="287.75" y="8487" width="110" height="40" as="geometry" />
        </mxCell>
        <mxCell id="lm0oPZzjpv0PWrZdyHH7-61" value="" style="edgeStyle=orthogonalEdgeStyle;rounded=0;orthogonalLoop=1;jettySize=auto;html=1;" parent="1" source="lm0oPZzjpv0PWrZdyHH7-62" target="lm0oPZzjpv0PWrZdyHH7-64" edge="1">
          <mxGeometry relative="1" as="geometry" />
        </mxCell>
        <mxCell id="lm0oPZzjpv0PWrZdyHH7-62" value="Clear the TWINT Flag" style="rounded=0;whiteSpace=wrap;html=1;fillColor=#d5e8d4;strokeColor=#82b366;fontFamily=Calibri;fontSize=12;" parent="1" vertex="1">
          <mxGeometry x="266.38" y="8572" width="153.5" height="83" as="geometry" />
        </mxCell>
        <mxCell id="lm0oPZzjpv0PWrZdyHH7-90" value="" style="edgeStyle=orthogonalEdgeStyle;rounded=0;orthogonalLoop=1;jettySize=auto;html=1;" parent="1" source="lm0oPZzjpv0PWrZdyHH7-64" target="lm0oPZzjpv0PWrZdyHH7-89" edge="1">
          <mxGeometry relative="1" as="geometry" />
        </mxCell>
        <mxCell id="lm0oPZzjpv0PWrZdyHH7-64" value="Send the start bit" style="rounded=0;whiteSpace=wrap;html=1;fillColor=#d5e8d4;strokeColor=#82b366;fontFamily=Calibri;fontSize=12;" parent="1" vertex="1">
          <mxGeometry x="266.38" y="8679" width="153.5" height="83" as="geometry" />
        </mxCell>
        <mxCell id="lm0oPZzjpv0PWrZdyHH7-65" value="" style="edgeStyle=orthogonalEdgeStyle;rounded=0;orthogonalLoop=1;jettySize=auto;html=1;" parent="1" source="lm0oPZzjpv0PWrZdyHH7-66" edge="1">
          <mxGeometry relative="1" as="geometry">
            <mxPoint x="343.2666666666669" y="9033" as="targetPoint" />
          </mxGeometry>
        </mxCell>
        <mxCell id="lm0oPZzjpv0PWrZdyHH7-66" value="Wait until the TWNT Flage is set to one" style="rounded=0;whiteSpace=wrap;html=1;fillColor=#d5e8d4;strokeColor=#82b366;fontFamily=Calibri;fontSize=12;" parent="1" vertex="1">
          <mxGeometry x="266" y="8912" width="153.5" height="83" as="geometry" />
        </mxCell>
        <mxCell id="lm0oPZzjpv0PWrZdyHH7-85" value="TWI_init" style="text;html=1;strokeColor=none;fillColor=none;align=center;verticalAlign=middle;whiteSpace=wrap;rounded=0;" parent="1" vertex="1">
          <mxGeometry x="98" y="8440" width="60" height="30" as="geometry" />
        </mxCell>
        <mxCell id="lm0oPZzjpv0PWrZdyHH7-86" value="TWI_start" style="text;html=1;strokeColor=none;fillColor=none;align=center;verticalAlign=middle;whiteSpace=wrap;rounded=0;" parent="1" vertex="1">
          <mxGeometry x="312.75" y="8440" width="60" height="30" as="geometry" />
        </mxCell>
        <mxCell id="lm0oPZzjpv0PWrZdyHH7-87" value="TWI_stop" style="text;html=1;strokeColor=none;fillColor=none;align=center;verticalAlign=middle;whiteSpace=wrap;rounded=0;" parent="1" vertex="1">
          <mxGeometry x="498.5" y="8440" width="60" height="30" as="geometry" />
        </mxCell>
        <mxCell id="lm0oPZzjpv0PWrZdyHH7-88" value="TWI_write" style="text;html=1;strokeColor=none;fillColor=none;align=center;verticalAlign=middle;whiteSpace=wrap;rounded=0;" parent="1" vertex="1">
          <mxGeometry x="727.13" y="8440" width="60" height="30" as="geometry" />
        </mxCell>
        <mxCell id="lm0oPZzjpv0PWrZdyHH7-91" value="" style="edgeStyle=orthogonalEdgeStyle;rounded=0;orthogonalLoop=1;jettySize=auto;html=1;" parent="1" source="lm0oPZzjpv0PWrZdyHH7-89" target="lm0oPZzjpv0PWrZdyHH7-66" edge="1">
          <mxGeometry relative="1" as="geometry" />
        </mxCell>
        <mxCell id="lm0oPZzjpv0PWrZdyHH7-89" value="Ennable the TWI Module" style="rounded=0;whiteSpace=wrap;html=1;fillColor=#d5e8d4;strokeColor=#82b366;fontFamily=Calibri;fontSize=12;" parent="1" vertex="1">
          <mxGeometry x="266.38" y="8796" width="153.5" height="83" as="geometry" />
        </mxCell>
        <mxCell id="lm0oPZzjpv0PWrZdyHH7-92" value="" style="edgeStyle=orthogonalEdgeStyle;rounded=0;orthogonalLoop=1;jettySize=auto;html=1;" parent="1" source="lm0oPZzjpv0PWrZdyHH7-93" target="lm0oPZzjpv0PWrZdyHH7-96" edge="1">
          <mxGeometry relative="1" as="geometry" />
        </mxCell>
        <mxCell id="lm0oPZzjpv0PWrZdyHH7-93" value="&lt;font style=&quot;font-size: 12px;&quot;&gt;Start&lt;/font&gt;" style="rounded=1;whiteSpace=wrap;html=1;arcSize=37;fillColor=#dae8fc;strokeColor=#6c8ebf;fontFamily=Calibri;fontSize=12;" parent="1" vertex="1">
          <mxGeometry x="473.31" y="8487" width="110" height="40" as="geometry" />
        </mxCell>
        <mxCell id="lm0oPZzjpv0PWrZdyHH7-95" value="" style="edgeStyle=orthogonalEdgeStyle;rounded=0;orthogonalLoop=1;jettySize=auto;html=1;" parent="1" source="lm0oPZzjpv0PWrZdyHH7-96" target="lm0oPZzjpv0PWrZdyHH7-98" edge="1">
          <mxGeometry relative="1" as="geometry" />
        </mxCell>
        <mxCell id="lm0oPZzjpv0PWrZdyHH7-96" value="Clear the TWINT Flag" style="rounded=0;whiteSpace=wrap;html=1;fillColor=#d5e8d4;strokeColor=#82b366;fontFamily=Calibri;fontSize=12;" parent="1" vertex="1">
          <mxGeometry x="451.94" y="8572" width="153.5" height="83" as="geometry" />
        </mxCell>
        <mxCell id="lm0oPZzjpv0PWrZdyHH7-97" value="" style="edgeStyle=orthogonalEdgeStyle;rounded=0;orthogonalLoop=1;jettySize=auto;html=1;" parent="1" source="lm0oPZzjpv0PWrZdyHH7-98" target="lm0oPZzjpv0PWrZdyHH7-102" edge="1">
          <mxGeometry relative="1" as="geometry" />
        </mxCell>
        <mxCell id="lm0oPZzjpv0PWrZdyHH7-98" value="Send the stop bit" style="rounded=0;whiteSpace=wrap;html=1;fillColor=#d5e8d4;strokeColor=#82b366;fontFamily=Calibri;fontSize=12;" parent="1" vertex="1">
          <mxGeometry x="451.94" y="8679" width="153.5" height="83" as="geometry" />
        </mxCell>
        <mxCell id="lm0oPZzjpv0PWrZdyHH7-99" value="" style="edgeStyle=orthogonalEdgeStyle;rounded=0;orthogonalLoop=1;jettySize=auto;html=1;" parent="1" source="lm0oPZzjpv0PWrZdyHH7-100" edge="1">
          <mxGeometry relative="1" as="geometry">
            <mxPoint x="528.7333333333336" y="9033" as="targetPoint" />
          </mxGeometry>
        </mxCell>
        <mxCell id="lm0oPZzjpv0PWrZdyHH7-100" value="Wait until the TWNT Flage is set to one" style="rounded=0;whiteSpace=wrap;html=1;fillColor=#d5e8d4;strokeColor=#82b366;fontFamily=Calibri;fontSize=12;" parent="1" vertex="1">
          <mxGeometry x="451.56" y="8912" width="153.5" height="83" as="geometry" />
        </mxCell>
        <mxCell id="lm0oPZzjpv0PWrZdyHH7-101" value="" style="edgeStyle=orthogonalEdgeStyle;rounded=0;orthogonalLoop=1;jettySize=auto;html=1;" parent="1" source="lm0oPZzjpv0PWrZdyHH7-102" target="lm0oPZzjpv0PWrZdyHH7-100" edge="1">
          <mxGeometry relative="1" as="geometry" />
        </mxCell>
        <mxCell id="lm0oPZzjpv0PWrZdyHH7-102" value="Ennable the TWI Module" style="rounded=0;whiteSpace=wrap;html=1;fillColor=#d5e8d4;strokeColor=#82b366;fontFamily=Calibri;fontSize=12;" parent="1" vertex="1">
          <mxGeometry x="451.94" y="8796" width="153.5" height="83" as="geometry" />
        </mxCell>
        <mxCell id="lm0oPZzjpv0PWrZdyHH7-103" value="" style="edgeStyle=orthogonalEdgeStyle;rounded=0;orthogonalLoop=1;jettySize=auto;html=1;" parent="1" source="lm0oPZzjpv0PWrZdyHH7-104" target="lm0oPZzjpv0PWrZdyHH7-107" edge="1">
          <mxGeometry relative="1" as="geometry" />
        </mxCell>
        <mxCell id="lm0oPZzjpv0PWrZdyHH7-104" value="&lt;font style=&quot;font-size: 12px;&quot;&gt;Start&lt;/font&gt;" style="rounded=1;whiteSpace=wrap;html=1;arcSize=37;fillColor=#dae8fc;strokeColor=#6c8ebf;fontFamily=Calibri;fontSize=12;" parent="1" vertex="1">
          <mxGeometry x="696.81" y="8487" width="110" height="40" as="geometry" />
        </mxCell>
        <mxCell id="lm0oPZzjpv0PWrZdyHH7-106" value="" style="edgeStyle=orthogonalEdgeStyle;rounded=0;orthogonalLoop=1;jettySize=auto;html=1;" parent="1" source="lm0oPZzjpv0PWrZdyHH7-107" target="lm0oPZzjpv0PWrZdyHH7-109" edge="1">
          <mxGeometry relative="1" as="geometry" />
        </mxCell>
        <mxCell id="lm0oPZzjpv0PWrZdyHH7-107" value="Put data on TWI &lt;br&gt;data Register" style="rounded=0;whiteSpace=wrap;html=1;fillColor=#d5e8d4;strokeColor=#82b366;fontFamily=Calibri;fontSize=12;" parent="1" vertex="1">
          <mxGeometry x="675.44" y="8572" width="153.5" height="83" as="geometry" />
        </mxCell>
        <mxCell id="lm0oPZzjpv0PWrZdyHH7-108" value="" style="edgeStyle=orthogonalEdgeStyle;rounded=0;orthogonalLoop=1;jettySize=auto;html=1;" parent="1" source="lm0oPZzjpv0PWrZdyHH7-109" target="lm0oPZzjpv0PWrZdyHH7-113" edge="1">
          <mxGeometry relative="1" as="geometry" />
        </mxCell>
        <mxCell id="lm0oPZzjpv0PWrZdyHH7-109" value="Clear the TWINT Flag" style="rounded=0;whiteSpace=wrap;html=1;fillColor=#d5e8d4;strokeColor=#82b366;fontFamily=Calibri;fontSize=12;" parent="1" vertex="1">
          <mxGeometry x="675.44" y="8679" width="153.5" height="83" as="geometry" />
        </mxCell>
        <mxCell id="lm0oPZzjpv0PWrZdyHH7-110" value="" style="edgeStyle=orthogonalEdgeStyle;rounded=0;orthogonalLoop=1;jettySize=auto;html=1;" parent="1" source="lm0oPZzjpv0PWrZdyHH7-111" edge="1">
          <mxGeometry relative="1" as="geometry">
            <mxPoint x="752.2000000000003" y="9033" as="targetPoint" />
          </mxGeometry>
        </mxCell>
        <mxCell id="lm0oPZzjpv0PWrZdyHH7-111" value="Wait until the TWNT Flage is set to one" style="rounded=0;whiteSpace=wrap;html=1;fillColor=#d5e8d4;strokeColor=#82b366;fontFamily=Calibri;fontSize=12;" parent="1" vertex="1">
          <mxGeometry x="675.06" y="8912" width="153.5" height="83" as="geometry" />
        </mxCell>
        <mxCell id="lm0oPZzjpv0PWrZdyHH7-112" value="" style="edgeStyle=orthogonalEdgeStyle;rounded=0;orthogonalLoop=1;jettySize=auto;html=1;" parent="1" source="lm0oPZzjpv0PWrZdyHH7-113" target="lm0oPZzjpv0PWrZdyHH7-111" edge="1">
          <mxGeometry relative="1" as="geometry" />
        </mxCell>
        <mxCell id="lm0oPZzjpv0PWrZdyHH7-113" value="Ennable the TWI Module" style="rounded=0;whiteSpace=wrap;html=1;fillColor=#d5e8d4;strokeColor=#82b366;fontFamily=Calibri;fontSize=12;" parent="1" vertex="1">
          <mxGeometry x="675.44" y="8796" width="153.5" height="83" as="geometry" />
        </mxCell>
        <mxCell id="lm0oPZzjpv0PWrZdyHH7-114" value="TWI_readWithAck" style="text;html=1;strokeColor=none;fillColor=none;align=center;verticalAlign=middle;whiteSpace=wrap;rounded=0;" parent="1" vertex="1">
          <mxGeometry x="95.18999999999994" y="9123" width="60" height="30" as="geometry" />
        </mxCell>
        <mxCell id="lm0oPZzjpv0PWrZdyHH7-115" value="" style="edgeStyle=orthogonalEdgeStyle;rounded=0;orthogonalLoop=1;jettySize=auto;html=1;" parent="1" source="lm0oPZzjpv0PWrZdyHH7-116" target="lm0oPZzjpv0PWrZdyHH7-119" edge="1">
          <mxGeometry relative="1" as="geometry" />
        </mxCell>
        <mxCell id="lm0oPZzjpv0PWrZdyHH7-116" value="&lt;font style=&quot;font-size: 12px;&quot;&gt;Start&lt;/font&gt;" style="rounded=1;whiteSpace=wrap;html=1;arcSize=37;fillColor=#dae8fc;strokeColor=#6c8ebf;fontFamily=Calibri;fontSize=12;" parent="1" vertex="1">
          <mxGeometry x="64.86999999999989" y="9170" width="110" height="40" as="geometry" />
        </mxCell>
        <mxCell id="lm0oPZzjpv0PWrZdyHH7-118" value="" style="edgeStyle=orthogonalEdgeStyle;rounded=0;orthogonalLoop=1;jettySize=auto;html=1;" parent="1" source="lm0oPZzjpv0PWrZdyHH7-119" target="lm0oPZzjpv0PWrZdyHH7-121" edge="1">
          <mxGeometry relative="1" as="geometry" />
        </mxCell>
        <mxCell id="lm0oPZzjpv0PWrZdyHH7-119" value="Clear the TWINT Flag" style="rounded=0;whiteSpace=wrap;html=1;fillColor=#d5e8d4;strokeColor=#82b366;fontFamily=Calibri;fontSize=12;gradientColor=#97d077;" parent="1" vertex="1">
          <mxGeometry x="43.5" y="9255" width="153.5" height="83" as="geometry" />
        </mxCell>
        <mxCell id="lm0oPZzjpv0PWrZdyHH7-120" value="" style="edgeStyle=orthogonalEdgeStyle;rounded=0;orthogonalLoop=1;jettySize=auto;html=1;" parent="1" source="lm0oPZzjpv0PWrZdyHH7-121" target="lm0oPZzjpv0PWrZdyHH7-125" edge="1">
          <mxGeometry relative="1" as="geometry" />
        </mxCell>
        <mxCell id="lm0oPZzjpv0PWrZdyHH7-121" value="Enable sending ACK after reading or receiving data" style="rounded=0;whiteSpace=wrap;html=1;fillColor=#d5e8d4;strokeColor=#82b366;fontFamily=Calibri;fontSize=12;gradientColor=#97d077;" parent="1" vertex="1">
          <mxGeometry x="43.5" y="9363" width="153.5" height="83" as="geometry" />
        </mxCell>
        <mxCell id="lm0oPZzjpv0PWrZdyHH7-127" value="" style="edgeStyle=orthogonalEdgeStyle;rounded=0;orthogonalLoop=1;jettySize=auto;html=1;" parent="1" source="lm0oPZzjpv0PWrZdyHH7-123" target="lm0oPZzjpv0PWrZdyHH7-126" edge="1">
          <mxGeometry relative="1" as="geometry" />
        </mxCell>
        <mxCell id="lm0oPZzjpv0PWrZdyHH7-123" value="Wait until the TWNT Flage is set to one" style="rounded=0;whiteSpace=wrap;html=1;fillColor=#d5e8d4;strokeColor=#82b366;fontFamily=Calibri;fontSize=12;" parent="1" vertex="1">
          <mxGeometry x="43.11999999999989" y="9595" width="153.5" height="83" as="geometry" />
        </mxCell>
        <mxCell id="lm0oPZzjpv0PWrZdyHH7-124" value="" style="edgeStyle=orthogonalEdgeStyle;rounded=0;orthogonalLoop=1;jettySize=auto;html=1;" parent="1" source="lm0oPZzjpv0PWrZdyHH7-125" target="lm0oPZzjpv0PWrZdyHH7-123" edge="1">
          <mxGeometry relative="1" as="geometry" />
        </mxCell>
        <mxCell id="lm0oPZzjpv0PWrZdyHH7-125" value="Ennable the TWI Module" style="rounded=0;whiteSpace=wrap;html=1;fillColor=#d5e8d4;strokeColor=#82b366;fontFamily=Calibri;fontSize=12;" parent="1" vertex="1">
          <mxGeometry x="43.5" y="9479" width="153.5" height="83" as="geometry" />
        </mxCell>
        <mxCell id="lm0oPZzjpv0PWrZdyHH7-128" value="" style="edgeStyle=orthogonalEdgeStyle;rounded=0;orthogonalLoop=1;jettySize=auto;html=1;" parent="1" source="lm0oPZzjpv0PWrZdyHH7-126" edge="1">
          <mxGeometry relative="1" as="geometry">
            <mxPoint x="120.29999999999995" y="9827" as="targetPoint" />
          </mxGeometry>
        </mxCell>
        <mxCell id="lm0oPZzjpv0PWrZdyHH7-126" value="Read/Return the TWI&amp;nbsp;&lt;br&gt;data register" style="rounded=0;whiteSpace=wrap;html=1;fillColor=#d5e8d4;strokeColor=#82b366;fontFamily=Calibri;fontSize=12;" parent="1" vertex="1">
          <mxGeometry x="43.120000000000005" y="9716" width="153.5" height="83" as="geometry" />
        </mxCell>
        <mxCell id="lm0oPZzjpv0PWrZdyHH7-129" value="TWI_readWithNAck" style="text;html=1;strokeColor=none;fillColor=none;align=center;verticalAlign=middle;whiteSpace=wrap;rounded=0;" parent="1" vertex="1">
          <mxGeometry x="290.18999999999994" y="9123" width="60" height="30" as="geometry" />
        </mxCell>
        <mxCell id="lm0oPZzjpv0PWrZdyHH7-130" value="" style="edgeStyle=orthogonalEdgeStyle;rounded=0;orthogonalLoop=1;jettySize=auto;html=1;" parent="1" source="lm0oPZzjpv0PWrZdyHH7-131" target="lm0oPZzjpv0PWrZdyHH7-134" edge="1">
          <mxGeometry relative="1" as="geometry" />
        </mxCell>
        <mxCell id="lm0oPZzjpv0PWrZdyHH7-131" value="&lt;font style=&quot;font-size: 12px;&quot;&gt;Start&lt;/font&gt;" style="rounded=1;whiteSpace=wrap;html=1;arcSize=37;fillColor=#dae8fc;strokeColor=#6c8ebf;fontFamily=Calibri;fontSize=12;" parent="1" vertex="1">
          <mxGeometry x="259.8699999999999" y="9170" width="110" height="40" as="geometry" />
        </mxCell>
        <mxCell id="lm0oPZzjpv0PWrZdyHH7-143" value="" style="edgeStyle=orthogonalEdgeStyle;rounded=0;orthogonalLoop=1;jettySize=auto;html=1;" parent="1" source="lm0oPZzjpv0PWrZdyHH7-134" target="lm0oPZzjpv0PWrZdyHH7-140" edge="1">
          <mxGeometry relative="1" as="geometry" />
        </mxCell>
        <mxCell id="lm0oPZzjpv0PWrZdyHH7-134" value="Clear the TWINT Flag" style="rounded=0;whiteSpace=wrap;html=1;fillColor=#d5e8d4;strokeColor=#82b366;fontFamily=Calibri;fontSize=12;gradientColor=#97d077;" parent="1" vertex="1">
          <mxGeometry x="238.5" y="9255" width="153.5" height="83" as="geometry" />
        </mxCell>
        <mxCell id="lm0oPZzjpv0PWrZdyHH7-137" value="" style="edgeStyle=orthogonalEdgeStyle;rounded=0;orthogonalLoop=1;jettySize=auto;html=1;" parent="1" source="lm0oPZzjpv0PWrZdyHH7-138" target="lm0oPZzjpv0PWrZdyHH7-142" edge="1">
          <mxGeometry relative="1" as="geometry" />
        </mxCell>
        <mxCell id="lm0oPZzjpv0PWrZdyHH7-138" value="Wait until the TWNT Flage is set to one" style="rounded=0;whiteSpace=wrap;html=1;fillColor=#d5e8d4;strokeColor=#82b366;fontFamily=Calibri;fontSize=12;gradientColor=#97d077;" parent="1" vertex="1">
          <mxGeometry x="238.1199999999999" y="9562" width="153.5" height="83" as="geometry" />
        </mxCell>
        <mxCell id="lm0oPZzjpv0PWrZdyHH7-139" value="" style="edgeStyle=orthogonalEdgeStyle;rounded=0;orthogonalLoop=1;jettySize=auto;html=1;" parent="1" source="lm0oPZzjpv0PWrZdyHH7-140" target="lm0oPZzjpv0PWrZdyHH7-138" edge="1">
          <mxGeometry relative="1" as="geometry" />
        </mxCell>
        <mxCell id="lm0oPZzjpv0PWrZdyHH7-140" value="Ennable the TWI Module" style="rounded=0;whiteSpace=wrap;html=1;fillColor=#d5e8d4;strokeColor=#82b366;fontFamily=Calibri;fontSize=12;gradientColor=#97d077;" parent="1" vertex="1">
          <mxGeometry x="238.5" y="9411" width="153.5" height="83" as="geometry" />
        </mxCell>
        <mxCell id="lm0oPZzjpv0PWrZdyHH7-141" value="" style="edgeStyle=orthogonalEdgeStyle;rounded=0;orthogonalLoop=1;jettySize=auto;html=1;" parent="1" source="lm0oPZzjpv0PWrZdyHH7-142" edge="1">
          <mxGeometry relative="1" as="geometry">
            <mxPoint x="315.3000000000002" y="9827" as="targetPoint" />
          </mxGeometry>
        </mxCell>
        <mxCell id="lm0oPZzjpv0PWrZdyHH7-142" value="Read/Return the TWI&amp;nbsp;&lt;br&gt;data register" style="rounded=0;whiteSpace=wrap;html=1;fillColor=#d5e8d4;strokeColor=#82b366;fontFamily=Calibri;fontSize=12;" parent="1" vertex="1">
          <mxGeometry x="238.12" y="9707" width="153.5" height="83" as="geometry" />
        </mxCell>
        <mxCell id="lm0oPZzjpv0PWrZdyHH7-152" value="" style="edgeStyle=orthogonalEdgeStyle;rounded=0;orthogonalLoop=1;jettySize=auto;html=1;" parent="1" source="lm0oPZzjpv0PWrZdyHH7-153" target="lm0oPZzjpv0PWrZdyHH7-156" edge="1">
          <mxGeometry relative="1" as="geometry" />
        </mxCell>
        <mxCell id="lm0oPZzjpv0PWrZdyHH7-153" value="&lt;font style=&quot;font-size: 12px;&quot;&gt;Start&lt;/font&gt;" style="rounded=1;whiteSpace=wrap;html=1;arcSize=37;fillColor=#dae8fc;strokeColor=#6c8ebf;fontFamily=Calibri;fontSize=12;" parent="1" vertex="1">
          <mxGeometry x="551.7499999999999" y="9157" width="110" height="40" as="geometry" />
        </mxCell>
        <mxCell id="lm0oPZzjpv0PWrZdyHH7-155" value="" style="edgeStyle=orthogonalEdgeStyle;rounded=0;orthogonalLoop=1;jettySize=auto;html=1;" parent="1" source="lm0oPZzjpv0PWrZdyHH7-156" edge="1">
          <mxGeometry relative="1" as="geometry">
            <mxPoint x="607.1300000000001" y="9398" as="targetPoint" />
          </mxGeometry>
        </mxCell>
        <mxCell id="lm0oPZzjpv0PWrZdyHH7-156" value="Mask the TWI Status register to get the status bits" style="rounded=0;whiteSpace=wrap;html=1;fillColor=#d5e8d4;strokeColor=#82b366;fontFamily=Calibri;fontSize=12;gradientColor=#97d077;" parent="1" vertex="1">
          <mxGeometry x="530.38" y="9242" width="153.5" height="83" as="geometry" />
        </mxCell>
        <mxCell id="lm0oPZzjpv0PWrZdyHH7-159" value="" style="edgeStyle=orthogonalEdgeStyle;rounded=0;orthogonalLoop=1;jettySize=auto;html=1;" parent="1" edge="1">
          <mxGeometry relative="1" as="geometry">
            <mxPoint x="607.2" y="9481" as="sourcePoint" />
          </mxGeometry>
        </mxCell>
        <mxCell id="lm0oPZzjpv0PWrZdyHH7-161" value="" style="edgeStyle=orthogonalEdgeStyle;rounded=0;orthogonalLoop=1;jettySize=auto;html=1;" parent="1" source="lm0oPZzjpv0PWrZdyHH7-162" edge="1">
          <mxGeometry relative="1" as="geometry">
            <mxPoint x="607.1999999999998" y="9519" as="targetPoint" />
          </mxGeometry>
        </mxCell>
        <mxCell id="lm0oPZzjpv0PWrZdyHH7-162" value="Return the TWI&amp;nbsp;&lt;br&gt;status value" style="rounded=0;whiteSpace=wrap;html=1;fillColor=#d5e8d4;strokeColor=#82b366;fontFamily=Calibri;fontSize=12;gradientColor=#97d077;" parent="1" vertex="1">
          <mxGeometry x="530" y="9399" width="153.5" height="83" as="geometry" />
        </mxCell>
        <mxCell id="lm0oPZzjpv0PWrZdyHH7-163" value="TWI_getStatus" style="text;html=1;strokeColor=none;fillColor=none;align=center;verticalAlign=middle;whiteSpace=wrap;rounded=0;" parent="1" vertex="1">
          <mxGeometry x="577.1299999999999" y="9118" width="60" height="30" as="geometry" />
        </mxCell>
        <mxCell id="lm0oPZzjpv0PWrZdyHH7-165" value="" style="edgeStyle=orthogonalEdgeStyle;rounded=0;orthogonalLoop=1;jettySize=auto;html=1;" parent="1" source="lm0oPZzjpv0PWrZdyHH7-166" target="lm0oPZzjpv0PWrZdyHH7-169" edge="1">
          <mxGeometry relative="1" as="geometry" />
        </mxCell>
        <mxCell id="lm0oPZzjpv0PWrZdyHH7-166" value="&lt;font style=&quot;font-size: 12px;&quot;&gt;Start&lt;/font&gt;" style="rounded=1;whiteSpace=wrap;html=1;arcSize=37;fillColor=#dae8fc;strokeColor=#6c8ebf;fontFamily=Calibri;fontSize=12;" parent="1" vertex="1">
          <mxGeometry x="-564.7500000000001" y="10016.5" width="110" height="40" as="geometry" />
        </mxCell>
        <mxCell id="lm0oPZzjpv0PWrZdyHH7-168" value="" style="edgeStyle=orthogonalEdgeStyle;rounded=0;orthogonalLoop=1;jettySize=auto;html=1;" parent="1" source="lm0oPZzjpv0PWrZdyHH7-169" edge="1">
          <mxGeometry relative="1" as="geometry">
            <mxPoint x="-509.3699999999999" y="10239.5" as="targetPoint" />
          </mxGeometry>
        </mxCell>
        <mxCell id="lm0oPZzjpv0PWrZdyHH7-169" value="Send Start bit to start the&lt;br&gt;&amp;nbsp;TWI protocol" style="rounded=0;whiteSpace=wrap;html=1;fillColor=#d5e8d4;strokeColor=#82b366;fontFamily=Calibri;fontSize=12;" parent="1" vertex="1">
          <mxGeometry x="-586.12" y="10101.5" width="153.5" height="55" as="geometry" />
        </mxCell>
        <mxCell id="rYo-Iy0mG2DSL3KK2n9q-19" value="" style="edgeStyle=orthogonalEdgeStyle;rounded=0;orthogonalLoop=1;jettySize=auto;html=1;" parent="1" target="rYo-Iy0mG2DSL3KK2n9q-18" edge="1">
          <mxGeometry relative="1" as="geometry">
            <mxPoint x="-509.7500000000001" y="10370.5" as="sourcePoint" />
          </mxGeometry>
        </mxCell>
        <mxCell id="lm0oPZzjpv0PWrZdyHH7-173" value="write the device address and R/W = 0" style="rounded=0;whiteSpace=wrap;html=1;fillColor=#d5e8d4;strokeColor=#82b366;fontFamily=Calibri;fontSize=12;" parent="1" vertex="1">
          <mxGeometry x="-586.5" y="10352.5" width="153.5" height="54" as="geometry" />
        </mxCell>
        <mxCell id="lm0oPZzjpv0PWrZdyHH7-177" value="Send the the required location address" style="rounded=0;whiteSpace=wrap;html=1;fillColor=#d5e8d4;strokeColor=#82b366;fontFamily=Calibri;fontSize=12;" parent="1" vertex="1">
          <mxGeometry x="-586.5" y="10584.5" width="153.5" height="44" as="geometry" />
        </mxCell>
        <mxCell id="lm0oPZzjpv0PWrZdyHH7-251" value="" style="edgeStyle=orthogonalEdgeStyle;rounded=0;orthogonalLoop=1;jettySize=auto;html=1;" parent="1" source="lm0oPZzjpv0PWrZdyHH7-252" target="lm0oPZzjpv0PWrZdyHH7-254" edge="1">
          <mxGeometry relative="1" as="geometry" />
        </mxCell>
        <mxCell id="lm0oPZzjpv0PWrZdyHH7-252" value="&lt;font style=&quot;font-size: 12px;&quot;&gt;Start&lt;/font&gt;" style="rounded=1;whiteSpace=wrap;html=1;arcSize=37;fillColor=#dae8fc;strokeColor=#6c8ebf;fontFamily=Calibri;fontSize=12;" parent="1" vertex="1">
          <mxGeometry x="744.6199999999999" y="11285" width="110" height="40" as="geometry" />
        </mxCell>
        <mxCell id="lm0oPZzjpv0PWrZdyHH7-254" value="Initializing the TWI module" style="rounded=0;whiteSpace=wrap;html=1;fillColor=#d5e8d4;strokeColor=#82b366;fontFamily=Calibri;fontSize=12;" parent="1" vertex="1">
          <mxGeometry x="723.25" y="11370" width="153.5" height="83" as="geometry" />
        </mxCell>
        <mxCell id="lm0oPZzjpv0PWrZdyHH7-255" value="" style="edgeStyle=orthogonalEdgeStyle;rounded=0;orthogonalLoop=1;jettySize=auto;html=1;" parent="1" edge="1">
          <mxGeometry relative="1" as="geometry">
            <mxPoint x="799.6699999999997" y="11454" as="sourcePoint" />
            <mxPoint x="800.0166666666664" y="11491" as="targetPoint" />
          </mxGeometry>
        </mxCell>
        <mxCell id="lm0oPZzjpv0PWrZdyHH7-256" value="EEPROM_init" style="text;html=1;strokeColor=none;fillColor=none;align=center;verticalAlign=middle;whiteSpace=wrap;rounded=0;" parent="1" vertex="1">
          <mxGeometry x="762.5" y="11236" width="60" height="30" as="geometry" />
        </mxCell>
        <mxCell id="rYo-Iy0mG2DSL3KK2n9q-14" value="" style="edgeStyle=orthogonalEdgeStyle;rounded=0;orthogonalLoop=1;jettySize=auto;html=1;" parent="1" source="rYo-Iy0mG2DSL3KK2n9q-13" target="lm0oPZzjpv0PWrZdyHH7-173" edge="1">
          <mxGeometry relative="1" as="geometry" />
        </mxCell>
        <mxCell id="rYo-Iy0mG2DSL3KK2n9q-13" value="TWSR != START" style="rhombus;whiteSpace=wrap;html=1;" parent="1" vertex="1">
          <mxGeometry x="-570.5" y="10193.5" width="123" height="117" as="geometry" />
        </mxCell>
        <mxCell id="rYo-Iy0mG2DSL3KK2n9q-20" value="" style="edgeStyle=orthogonalEdgeStyle;rounded=0;orthogonalLoop=1;jettySize=auto;html=1;" parent="1" target="lm0oPZzjpv0PWrZdyHH7-177" edge="1">
          <mxGeometry relative="1" as="geometry">
            <mxPoint x="-510" y="10499.5" as="sourcePoint" />
          </mxGeometry>
        </mxCell>
        <mxCell id="rYo-Iy0mG2DSL3KK2n9q-18" value="&amp;nbsp;TWSR != SLA_W_ACK" style="rhombus;whiteSpace=wrap;html=1;" parent="1" vertex="1">
          <mxGeometry x="-570.5" y="10434.5" width="121" height="117" as="geometry" />
        </mxCell>
        <mxCell id="rYo-Iy0mG2DSL3KK2n9q-21" value="Yes" style="text;html=1;strokeColor=none;fillColor=none;align=center;verticalAlign=middle;whiteSpace=wrap;rounded=0;" parent="1" vertex="1">
          <mxGeometry x="-577.5" y="10551.5" width="60" height="30" as="geometry" />
        </mxCell>
        <mxCell id="rYo-Iy0mG2DSL3KK2n9q-22" value="NO" style="text;html=1;strokeColor=none;fillColor=none;align=center;verticalAlign=middle;whiteSpace=wrap;rounded=0;" parent="1" vertex="1">
          <mxGeometry x="-454.75" y="10458.5" width="60" height="30" as="geometry" />
        </mxCell>
        <mxCell id="rYo-Iy0mG2DSL3KK2n9q-34" value="" style="edgeStyle=orthogonalEdgeStyle;rounded=0;orthogonalLoop=1;jettySize=auto;html=1;" parent="1" source="rYo-Iy0mG2DSL3KK2n9q-23" target="rYo-Iy0mG2DSL3KK2n9q-31" edge="1">
          <mxGeometry relative="1" as="geometry" />
        </mxCell>
        <mxCell id="rYo-Iy0mG2DSL3KK2n9q-23" value="write byte to eeprom" style="rounded=0;whiteSpace=wrap;html=1;fillColor=#d5e8d4;strokeColor=#82b366;fontFamily=Calibri;fontSize=12;" parent="1" vertex="1">
          <mxGeometry x="-191.75" y="10428.5" width="153.5" height="44" as="geometry" />
        </mxCell>
        <mxCell id="rYo-Iy0mG2DSL3KK2n9q-30" value="" style="edgeStyle=orthogonalEdgeStyle;rounded=0;orthogonalLoop=1;jettySize=auto;html=1;" parent="1" source="rYo-Iy0mG2DSL3KK2n9q-26" target="rYo-Iy0mG2DSL3KK2n9q-23" edge="1">
          <mxGeometry relative="1" as="geometry" />
        </mxCell>
        <mxCell id="rYo-Iy0mG2DSL3KK2n9q-26" value="&amp;nbsp;TWSR != MT_DATA_ACK" style="rhombus;whiteSpace=wrap;html=1;" parent="1" vertex="1">
          <mxGeometry x="-175.5" y="10275.5" width="121" height="117" as="geometry" />
        </mxCell>
        <mxCell id="rYo-Iy0mG2DSL3KK2n9q-27" value="Yes" style="text;html=1;strokeColor=none;fillColor=none;align=center;verticalAlign=middle;whiteSpace=wrap;rounded=0;" parent="1" vertex="1">
          <mxGeometry x="-162.5" y="10398.5" width="60" height="30" as="geometry" />
        </mxCell>
        <mxCell id="rYo-Iy0mG2DSL3KK2n9q-28" value="NO" style="text;html=1;strokeColor=none;fillColor=none;align=center;verticalAlign=middle;whiteSpace=wrap;rounded=0;" parent="1" vertex="1">
          <mxGeometry x="-63.629999999999995" y="10302" width="60" height="30" as="geometry" />
        </mxCell>
        <mxCell id="rYo-Iy0mG2DSL3KK2n9q-36" value="" style="edgeStyle=orthogonalEdgeStyle;rounded=0;orthogonalLoop=1;jettySize=auto;html=1;" parent="1" source="rYo-Iy0mG2DSL3KK2n9q-31" target="rYo-Iy0mG2DSL3KK2n9q-35" edge="1">
          <mxGeometry relative="1" as="geometry" />
        </mxCell>
        <mxCell id="rYo-Iy0mG2DSL3KK2n9q-31" value="&amp;nbsp;TWSR != MT_DATA_ACK" style="rhombus;whiteSpace=wrap;html=1;fillColor=#fff2cc;strokeColor=#d6b656;" parent="1" vertex="1">
          <mxGeometry x="-176.12" y="10514.5" width="121" height="117" as="geometry" />
        </mxCell>
        <mxCell id="rYo-Iy0mG2DSL3KK2n9q-32" value="Yes" style="text;html=1;strokeColor=none;fillColor=none;align=center;verticalAlign=middle;whiteSpace=wrap;rounded=0;" parent="1" vertex="1">
          <mxGeometry x="-175.5" y="10637.5" width="60" height="30" as="geometry" />
        </mxCell>
        <mxCell id="rYo-Iy0mG2DSL3KK2n9q-33" value="NO" style="text;html=1;strokeColor=none;fillColor=none;align=center;verticalAlign=middle;whiteSpace=wrap;rounded=0;" parent="1" vertex="1">
          <mxGeometry x="-57.120000000000005" y="10541.5" width="60" height="30" as="geometry" />
        </mxCell>
        <mxCell id="rYo-Iy0mG2DSL3KK2n9q-37" value="" style="edgeStyle=orthogonalEdgeStyle;rounded=0;orthogonalLoop=1;jettySize=auto;html=1;" parent="1" source="rYo-Iy0mG2DSL3KK2n9q-35" target="iYYZ05YK2q3DXUM4ZECD-5" edge="1">
          <mxGeometry relative="1" as="geometry">
            <mxPoint x="-115.59999999999991" y="10772.5" as="targetPoint" />
          </mxGeometry>
        </mxCell>
        <mxCell id="rYo-Iy0mG2DSL3KK2n9q-35" value="Send Stop bit to Stop&amp;nbsp;the&lt;br style=&quot;border-color: var(--border-color);&quot;&gt;&amp;nbsp;TWI protocol" style="rounded=0;whiteSpace=wrap;html=1;fillColor=#d5e8d4;strokeColor=#82b366;fontFamily=Calibri;fontSize=12;" parent="1" vertex="1">
          <mxGeometry x="-193" y="10683.5" width="153.5" height="44" as="geometry" />
        </mxCell>
        <mxCell id="rYo-Iy0mG2DSL3KK2n9q-38" value="" style="endArrow=classic;html=1;rounded=0;exitX=1;exitY=0.5;exitDx=0;exitDy=0;edgeStyle=orthogonalEdgeStyle;" parent="1" source="rYo-Iy0mG2DSL3KK2n9q-13" edge="1">
          <mxGeometry width="50" height="50" relative="1" as="geometry">
            <mxPoint x="-447.5" y="10266" as="sourcePoint" />
            <mxPoint x="107" y="10791" as="targetPoint" />
            <Array as="points">
              <mxPoint x="107" y="10252" />
              <mxPoint x="107" y="10763" />
            </Array>
          </mxGeometry>
        </mxCell>
        <mxCell id="rYo-Iy0mG2DSL3KK2n9q-40" value="" style="endArrow=classic;html=1;rounded=0;exitX=1;exitY=0.5;exitDx=0;exitDy=0;" parent="1" source="rYo-Iy0mG2DSL3KK2n9q-18" edge="1">
          <mxGeometry width="50" height="50" relative="1" as="geometry">
            <mxPoint x="-275.5" y="10428.5" as="sourcePoint" />
            <mxPoint x="-338" y="10252" as="targetPoint" />
            <Array as="points">
              <mxPoint x="-338" y="10493" />
            </Array>
          </mxGeometry>
        </mxCell>
        <mxCell id="rYo-Iy0mG2DSL3KK2n9q-41" value="" style="endArrow=classic;html=1;rounded=0;" parent="1" edge="1">
          <mxGeometry width="50" height="50" relative="1" as="geometry">
            <mxPoint x="-55" y="10335" as="sourcePoint" />
            <mxPoint x="105" y="10335" as="targetPoint" />
          </mxGeometry>
        </mxCell>
        <mxCell id="rYo-Iy0mG2DSL3KK2n9q-42" value="" style="endArrow=classic;html=1;rounded=0;exitX=1;exitY=0.5;exitDx=0;exitDy=0;" parent="1" edge="1">
          <mxGeometry width="50" height="50" relative="1" as="geometry">
            <mxPoint x="-55.120000000000005" y="10573.5" as="sourcePoint" />
            <mxPoint x="107" y="10574" as="targetPoint" />
          </mxGeometry>
        </mxCell>
        <mxCell id="rYo-Iy0mG2DSL3KK2n9q-44" value="" style="edgeStyle=orthogonalEdgeStyle;rounded=0;orthogonalLoop=1;jettySize=auto;html=1;" parent="1" source="rYo-Iy0mG2DSL3KK2n9q-45" target="rYo-Iy0mG2DSL3KK2n9q-48" edge="1">
          <mxGeometry relative="1" as="geometry" />
        </mxCell>
        <mxCell id="rYo-Iy0mG2DSL3KK2n9q-45" value="&lt;font style=&quot;font-size: 12px;&quot;&gt;Start&lt;/font&gt;" style="rounded=1;whiteSpace=wrap;html=1;arcSize=37;fillColor=#dae8fc;strokeColor=#6c8ebf;fontFamily=Calibri;fontSize=12;" parent="1" vertex="1">
          <mxGeometry x="553.2499999999999" y="10007" width="110" height="40" as="geometry" />
        </mxCell>
        <mxCell id="rYo-Iy0mG2DSL3KK2n9q-47" value="" style="edgeStyle=orthogonalEdgeStyle;rounded=0;orthogonalLoop=1;jettySize=auto;html=1;" parent="1" source="rYo-Iy0mG2DSL3KK2n9q-48" edge="1">
          <mxGeometry relative="1" as="geometry">
            <mxPoint x="608.6300000000001" y="10230" as="targetPoint" />
          </mxGeometry>
        </mxCell>
        <mxCell id="rYo-Iy0mG2DSL3KK2n9q-48" value="Send Start bit to start the&lt;br&gt;&amp;nbsp;TWI protocol" style="rounded=0;whiteSpace=wrap;html=1;fillColor=#d5e8d4;strokeColor=#82b366;fontFamily=Calibri;fontSize=12;" parent="1" vertex="1">
          <mxGeometry x="531.88" y="10092" width="153.5" height="55" as="geometry" />
        </mxCell>
        <mxCell id="rYo-Iy0mG2DSL3KK2n9q-49" value="" style="edgeStyle=orthogonalEdgeStyle;rounded=0;orthogonalLoop=1;jettySize=auto;html=1;" parent="1" target="rYo-Iy0mG2DSL3KK2n9q-56" edge="1">
          <mxGeometry relative="1" as="geometry">
            <mxPoint x="608.2499999999999" y="10361" as="sourcePoint" />
          </mxGeometry>
        </mxCell>
        <mxCell id="rYo-Iy0mG2DSL3KK2n9q-50" value="write the device address and R/W = 0" style="rounded=0;whiteSpace=wrap;html=1;fillColor=#d5e8d4;strokeColor=#82b366;fontFamily=Calibri;fontSize=12;" parent="1" vertex="1">
          <mxGeometry x="531.5" y="10343" width="153.5" height="54" as="geometry" />
        </mxCell>
        <mxCell id="rYo-Iy0mG2DSL3KK2n9q-51" value="" style="edgeStyle=orthogonalEdgeStyle;rounded=0;orthogonalLoop=1;jettySize=auto;html=1;" parent="1" source="rYo-Iy0mG2DSL3KK2n9q-52" target="rYo-Iy0mG2DSL3KK2n9q-62" edge="1">
          <mxGeometry relative="1" as="geometry" />
        </mxCell>
        <mxCell id="rYo-Iy0mG2DSL3KK2n9q-52" value="Send the the required location address" style="rounded=0;whiteSpace=wrap;html=1;fillColor=#d5e8d4;strokeColor=#82b366;fontFamily=Calibri;fontSize=12;" parent="1" vertex="1">
          <mxGeometry x="531.5" y="10575" width="153.5" height="44" as="geometry" />
        </mxCell>
        <mxCell id="rYo-Iy0mG2DSL3KK2n9q-53" value="" style="edgeStyle=orthogonalEdgeStyle;rounded=0;orthogonalLoop=1;jettySize=auto;html=1;" parent="1" source="rYo-Iy0mG2DSL3KK2n9q-54" target="rYo-Iy0mG2DSL3KK2n9q-50" edge="1">
          <mxGeometry relative="1" as="geometry" />
        </mxCell>
        <mxCell id="rYo-Iy0mG2DSL3KK2n9q-54" value="TWSR != START" style="rhombus;whiteSpace=wrap;html=1;fillColor=#fff2cc;strokeColor=#d6b656;" parent="1" vertex="1">
          <mxGeometry x="547.5" y="10184" width="123" height="117" as="geometry" />
        </mxCell>
        <mxCell id="rYo-Iy0mG2DSL3KK2n9q-55" value="" style="edgeStyle=orthogonalEdgeStyle;rounded=0;orthogonalLoop=1;jettySize=auto;html=1;" parent="1" target="rYo-Iy0mG2DSL3KK2n9q-52" edge="1">
          <mxGeometry relative="1" as="geometry">
            <mxPoint x="608" y="10490" as="sourcePoint" />
          </mxGeometry>
        </mxCell>
        <mxCell id="rYo-Iy0mG2DSL3KK2n9q-56" value="&amp;nbsp;TWSR != SLA_W_ACK" style="rhombus;whiteSpace=wrap;html=1;fillColor=#fff2cc;strokeColor=#d6b656;" parent="1" vertex="1">
          <mxGeometry x="547.5" y="10425" width="121" height="117" as="geometry" />
        </mxCell>
        <mxCell id="rYo-Iy0mG2DSL3KK2n9q-57" value="Yes" style="text;html=1;strokeColor=none;fillColor=none;align=center;verticalAlign=middle;whiteSpace=wrap;rounded=0;" parent="1" vertex="1">
          <mxGeometry x="540.5" y="10542" width="60" height="30" as="geometry" />
        </mxCell>
        <mxCell id="rYo-Iy0mG2DSL3KK2n9q-58" value="NO" style="text;html=1;strokeColor=none;fillColor=none;align=center;verticalAlign=middle;whiteSpace=wrap;rounded=0;" parent="1" vertex="1">
          <mxGeometry x="663.25" y="10449" width="60" height="30" as="geometry" />
        </mxCell>
        <mxCell id="rYo-Iy0mG2DSL3KK2n9q-59" value="" style="edgeStyle=orthogonalEdgeStyle;rounded=0;orthogonalLoop=1;jettySize=auto;html=1;" parent="1" source="rYo-Iy0mG2DSL3KK2n9q-60" target="rYo-Iy0mG2DSL3KK2n9q-66" edge="1">
          <mxGeometry relative="1" as="geometry" />
        </mxCell>
        <mxCell id="rYo-Iy0mG2DSL3KK2n9q-60" value="Send a repeated start" style="rounded=0;whiteSpace=wrap;html=1;fillColor=#d5e8d4;strokeColor=#82b366;fontFamily=Calibri;fontSize=12;" parent="1" vertex="1">
          <mxGeometry x="531.25" y="10801" width="153.5" height="44" as="geometry" />
        </mxCell>
        <mxCell id="rYo-Iy0mG2DSL3KK2n9q-61" value="" style="edgeStyle=orthogonalEdgeStyle;rounded=0;orthogonalLoop=1;jettySize=auto;html=1;" parent="1" source="rYo-Iy0mG2DSL3KK2n9q-62" target="rYo-Iy0mG2DSL3KK2n9q-60" edge="1">
          <mxGeometry relative="1" as="geometry" />
        </mxCell>
        <mxCell id="rYo-Iy0mG2DSL3KK2n9q-62" value="&amp;nbsp;TWSR != MT_DATA_ACK" style="rhombus;whiteSpace=wrap;html=1;fillColor=#fff2cc;strokeColor=#d6b656;" parent="1" vertex="1">
          <mxGeometry x="547.5" y="10648" width="121" height="117" as="geometry" />
        </mxCell>
        <mxCell id="rYo-Iy0mG2DSL3KK2n9q-63" value="Yes" style="text;html=1;strokeColor=none;fillColor=none;align=center;verticalAlign=middle;whiteSpace=wrap;rounded=0;" parent="1" vertex="1">
          <mxGeometry x="560.5" y="10771" width="60" height="30" as="geometry" />
        </mxCell>
        <mxCell id="rYo-Iy0mG2DSL3KK2n9q-64" value="NO" style="text;html=1;strokeColor=none;fillColor=none;align=center;verticalAlign=middle;whiteSpace=wrap;rounded=0;" parent="1" vertex="1">
          <mxGeometry x="659.37" y="10674.5" width="60" height="30" as="geometry" />
        </mxCell>
        <mxCell id="rYo-Iy0mG2DSL3KK2n9q-65" value="" style="edgeStyle=orthogonalEdgeStyle;rounded=0;orthogonalLoop=1;jettySize=auto;html=1;" parent="1" source="rYo-Iy0mG2DSL3KK2n9q-66" edge="1">
          <mxGeometry relative="1" as="geometry">
            <mxPoint x="891" y="10296" as="targetPoint" />
            <Array as="points">
              <mxPoint x="607" y="11056" />
              <mxPoint x="850" y="11056" />
            </Array>
          </mxGeometry>
        </mxCell>
        <mxCell id="rYo-Iy0mG2DSL3KK2n9q-66" value="&amp;nbsp;TWSR != TW_REP_START" style="rhombus;whiteSpace=wrap;html=1;fillColor=#fff2cc;strokeColor=#d6b656;" parent="1" vertex="1">
          <mxGeometry x="546.88" y="10887" width="121" height="117" as="geometry" />
        </mxCell>
        <mxCell id="rYo-Iy0mG2DSL3KK2n9q-68" value="NO" style="text;html=1;strokeColor=none;fillColor=none;align=center;verticalAlign=middle;whiteSpace=wrap;rounded=0;" parent="1" vertex="1">
          <mxGeometry x="665.88" y="10914" width="60" height="30" as="geometry" />
        </mxCell>
        <mxCell id="rYo-Iy0mG2DSL3KK2n9q-71" value="" style="endArrow=classic;html=1;rounded=0;edgeStyle=orthogonalEdgeStyle;exitX=1;exitY=0.5;exitDx=0;exitDy=0;" parent="1" source="rYo-Iy0mG2DSL3KK2n9q-54" edge="1">
          <mxGeometry width="50" height="50" relative="1" as="geometry">
            <mxPoint x="670.5" y="10260.5" as="sourcePoint" />
            <mxPoint x="1194" y="10859" as="targetPoint" />
            <Array as="points">
              <mxPoint x="1194" y="10243" />
            </Array>
          </mxGeometry>
        </mxCell>
        <mxCell id="rYo-Iy0mG2DSL3KK2n9q-74" value="" style="endArrow=classic;html=1;rounded=0;exitX=1;exitY=0.5;exitDx=0;exitDy=0;" parent="1" edge="1">
          <mxGeometry width="50" height="50" relative="1" as="geometry">
            <mxPoint x="667.88" y="10706" as="sourcePoint" />
            <mxPoint x="759" y="10705" as="targetPoint" />
          </mxGeometry>
        </mxCell>
        <mxCell id="rYo-Iy0mG2DSL3KK2n9q-75" value="" style="endArrow=classic;html=1;rounded=0;exitX=1;exitY=0.5;exitDx=0;exitDy=0;" parent="1" edge="1">
          <mxGeometry width="50" height="50" relative="1" as="geometry">
            <mxPoint x="667.88" y="10946" as="sourcePoint" />
            <mxPoint x="761" y="10243" as="targetPoint" />
            <Array as="points">
              <mxPoint x="761" y="10946" />
            </Array>
          </mxGeometry>
        </mxCell>
        <mxCell id="rYo-Iy0mG2DSL3KK2n9q-91" value="" style="edgeStyle=orthogonalEdgeStyle;rounded=0;orthogonalLoop=1;jettySize=auto;html=1;" parent="1" source="rYo-Iy0mG2DSL3KK2n9q-76" target="rYo-Iy0mG2DSL3KK2n9q-78" edge="1">
          <mxGeometry relative="1" as="geometry" />
        </mxCell>
        <mxCell id="rYo-Iy0mG2DSL3KK2n9q-76" value="write the device address and R/W = 1" style="rounded=0;whiteSpace=wrap;html=1;fillColor=#d5e8d4;strokeColor=#82b366;fontFamily=Calibri;fontSize=12;" parent="1" vertex="1">
          <mxGeometry x="891.75" y="10277" width="153.5" height="44" as="geometry" />
        </mxCell>
        <mxCell id="rYo-Iy0mG2DSL3KK2n9q-89" value="" style="edgeStyle=orthogonalEdgeStyle;rounded=0;orthogonalLoop=1;jettySize=auto;html=1;" parent="1" source="rYo-Iy0mG2DSL3KK2n9q-77" target="rYo-Iy0mG2DSL3KK2n9q-80" edge="1">
          <mxGeometry relative="1" as="geometry" />
        </mxCell>
        <mxCell id="rYo-Iy0mG2DSL3KK2n9q-77" value="Read the required location from EEPROM" style="rounded=0;whiteSpace=wrap;html=1;fillColor=#d5e8d4;strokeColor=#82b366;fontFamily=Calibri;fontSize=12;" parent="1" vertex="1">
          <mxGeometry x="891.5" y="10503" width="153.5" height="44" as="geometry" />
        </mxCell>
        <mxCell id="rYo-Iy0mG2DSL3KK2n9q-90" value="" style="edgeStyle=orthogonalEdgeStyle;rounded=0;orthogonalLoop=1;jettySize=auto;html=1;" parent="1" source="rYo-Iy0mG2DSL3KK2n9q-78" target="rYo-Iy0mG2DSL3KK2n9q-77" edge="1">
          <mxGeometry relative="1" as="geometry" />
        </mxCell>
        <mxCell id="rYo-Iy0mG2DSL3KK2n9q-78" value="&amp;nbsp;TWSR != SLA_R_ACK" style="rhombus;whiteSpace=wrap;html=1;fillColor=#fff2cc;strokeColor=#d6b656;" parent="1" vertex="1">
          <mxGeometry x="907.75" y="10350" width="121" height="117" as="geometry" />
        </mxCell>
        <mxCell id="rYo-Iy0mG2DSL3KK2n9q-79" value="Yes" style="text;html=1;strokeColor=none;fillColor=none;align=center;verticalAlign=middle;whiteSpace=wrap;rounded=0;" parent="1" vertex="1">
          <mxGeometry x="898.25" y="10476" width="60" height="30" as="geometry" />
        </mxCell>
        <mxCell id="rYo-Iy0mG2DSL3KK2n9q-88" value="" style="edgeStyle=orthogonalEdgeStyle;rounded=0;orthogonalLoop=1;jettySize=auto;html=1;" parent="1" source="rYo-Iy0mG2DSL3KK2n9q-80" target="rYo-Iy0mG2DSL3KK2n9q-86" edge="1">
          <mxGeometry relative="1" as="geometry" />
        </mxCell>
        <mxCell id="rYo-Iy0mG2DSL3KK2n9q-80" value="&amp;nbsp;TWSR != MT_DATA_ACK" style="rhombus;whiteSpace=wrap;html=1;fillColor=#fff2cc;strokeColor=#d6b656;" parent="1" vertex="1">
          <mxGeometry x="907.13" y="10589" width="121" height="117" as="geometry" />
        </mxCell>
        <mxCell id="rYo-Iy0mG2DSL3KK2n9q-81" value="Yes" style="text;html=1;strokeColor=none;fillColor=none;align=center;verticalAlign=middle;whiteSpace=wrap;rounded=0;" parent="1" vertex="1">
          <mxGeometry x="891.5" y="10713" width="60" height="30" as="geometry" />
        </mxCell>
        <mxCell id="rYo-Iy0mG2DSL3KK2n9q-82" value="NO" style="text;html=1;strokeColor=none;fillColor=none;align=center;verticalAlign=middle;whiteSpace=wrap;rounded=0;" parent="1" vertex="1">
          <mxGeometry x="1026.13" y="10616" width="60" height="30" as="geometry" />
        </mxCell>
        <mxCell id="rYo-Iy0mG2DSL3KK2n9q-83" value="" style="endArrow=classic;html=1;rounded=0;exitX=1;exitY=0.5;exitDx=0;exitDy=0;" parent="1" edge="1">
          <mxGeometry width="50" height="50" relative="1" as="geometry">
            <mxPoint x="1028.13" y="10408" as="sourcePoint" />
            <mxPoint x="1194" y="10406" as="targetPoint" />
          </mxGeometry>
        </mxCell>
        <mxCell id="rYo-Iy0mG2DSL3KK2n9q-84" value="" style="endArrow=classic;html=1;rounded=0;exitX=1;exitY=0.5;exitDx=0;exitDy=0;" parent="1" edge="1">
          <mxGeometry width="50" height="50" relative="1" as="geometry">
            <mxPoint x="1028.13" y="10648" as="sourcePoint" />
            <mxPoint x="1194" y="10648" as="targetPoint" />
          </mxGeometry>
        </mxCell>
        <mxCell id="rYo-Iy0mG2DSL3KK2n9q-87" value="" style="edgeStyle=orthogonalEdgeStyle;rounded=0;orthogonalLoop=1;jettySize=auto;html=1;" parent="1" source="rYo-Iy0mG2DSL3KK2n9q-86" target="iYYZ05YK2q3DXUM4ZECD-7" edge="1">
          <mxGeometry relative="1" as="geometry">
            <mxPoint x="968.5" y="10842" as="targetPoint" />
          </mxGeometry>
        </mxCell>
        <mxCell id="rYo-Iy0mG2DSL3KK2n9q-86" value="Send Stop bit to Stop&amp;nbsp;the&lt;br style=&quot;border-color: var(--border-color);&quot;&gt;&amp;nbsp;TWI protocol" style="rounded=0;whiteSpace=wrap;html=1;fillColor=#d5e8d4;strokeColor=#82b366;fontFamily=Calibri;fontSize=12;" parent="1" vertex="1">
          <mxGeometry x="891" y="10770" width="153.5" height="44" as="geometry" />
        </mxCell>
        <mxCell id="rYo-Iy0mG2DSL3KK2n9q-92" value="NO" style="text;html=1;strokeColor=none;fillColor=none;align=center;verticalAlign=middle;whiteSpace=wrap;rounded=0;" parent="1" vertex="1">
          <mxGeometry x="1021.5" y="10373" width="60" height="30" as="geometry" />
        </mxCell>
        <mxCell id="iYYZ05YK2q3DXUM4ZECD-1" value="&lt;font style=&quot;font-size: 12px;&quot;&gt;End&lt;/font&gt;" style="rounded=1;whiteSpace=wrap;html=1;arcSize=37;fillColor=#dae8fc;strokeColor=#6c8ebf;fontFamily=Calibri;fontSize=12;" parent="1" vertex="1">
          <mxGeometry x="552.2499999999999" y="9520" width="110" height="40" as="geometry" />
        </mxCell>
        <mxCell id="iYYZ05YK2q3DXUM4ZECD-2" value="&lt;font style=&quot;font-size: 12px;&quot;&gt;End&lt;/font&gt;" style="rounded=1;whiteSpace=wrap;html=1;arcSize=37;fillColor=#dae8fc;strokeColor=#6c8ebf;fontFamily=Calibri;fontSize=12;" parent="1" vertex="1">
          <mxGeometry x="260.2499999999999" y="9828" width="110" height="40" as="geometry" />
        </mxCell>
        <mxCell id="iYYZ05YK2q3DXUM4ZECD-3" value="&lt;font style=&quot;font-size: 12px;&quot;&gt;End&lt;/font&gt;" style="rounded=1;whiteSpace=wrap;html=1;arcSize=37;fillColor=#dae8fc;strokeColor=#6c8ebf;fontFamily=Calibri;fontSize=12;" parent="1" vertex="1">
          <mxGeometry x="62.999999999999886" y="9828" width="110" height="40" as="geometry" />
        </mxCell>
        <mxCell id="iYYZ05YK2q3DXUM4ZECD-4" value="EEPROM_ERROR" style="rounded=1;whiteSpace=wrap;html=1;arcSize=37;fillColor=#fad9d5;strokeColor=#ae4132;fontFamily=Calibri;fontSize=12;" parent="1" vertex="1">
          <mxGeometry x="48.12999999999989" y="10792" width="110" height="40" as="geometry" />
        </mxCell>
        <mxCell id="iYYZ05YK2q3DXUM4ZECD-5" value="EEPROM_Success" style="rounded=1;whiteSpace=wrap;html=1;arcSize=37;fillColor=#d5e8d4;strokeColor=#82b366;fontFamily=Calibri;fontSize=12;" parent="1" vertex="1">
          <mxGeometry x="-171.2500000000001" y="10792" width="110" height="40" as="geometry" />
        </mxCell>
        <mxCell id="iYYZ05YK2q3DXUM4ZECD-6" value="EEPROM_ERROR" style="rounded=1;whiteSpace=wrap;html=1;arcSize=37;fillColor=#fad9d5;strokeColor=#ae4132;fontFamily=Calibri;fontSize=12;" parent="1" vertex="1">
          <mxGeometry x="1141.5" y="10860" width="110" height="40" as="geometry" />
        </mxCell>
        <mxCell id="iYYZ05YK2q3DXUM4ZECD-7" value="EEPROM_Success" style="rounded=1;whiteSpace=wrap;html=1;arcSize=37;fillColor=#d5e8d4;strokeColor=#82b366;fontFamily=Calibri;fontSize=12;" parent="1" vertex="1">
          <mxGeometry x="913.3799999999999" y="10864" width="110" height="40" as="geometry" />
        </mxCell>
        <mxCell id="iYYZ05YK2q3DXUM4ZECD-15" value="" style="edgeStyle=orthogonalEdgeStyle;rounded=0;orthogonalLoop=1;jettySize=auto;html=1;" parent="1" source="iYYZ05YK2q3DXUM4ZECD-9" target="iYYZ05YK2q3DXUM4ZECD-14" edge="1">
          <mxGeometry relative="1" as="geometry" />
        </mxCell>
        <mxCell id="iYYZ05YK2q3DXUM4ZECD-9" value="&lt;font style=&quot;font-size: 12px;&quot;&gt;Start&lt;/font&gt;" style="rounded=1;whiteSpace=wrap;html=1;arcSize=37;fillColor=#dae8fc;strokeColor=#6c8ebf;fontFamily=Calibri;fontSize=12;" parent="1" vertex="1">
          <mxGeometry x="64.86999999999989" y="11427" width="110" height="40" as="geometry" />
        </mxCell>
        <mxCell id="iYYZ05YK2q3DXUM4ZECD-21" value="" style="edgeStyle=orthogonalEdgeStyle;rounded=0;orthogonalLoop=1;jettySize=auto;html=1;" parent="1" source="iYYZ05YK2q3DXUM4ZECD-11" target="iYYZ05YK2q3DXUM4ZECD-20" edge="1">
          <mxGeometry relative="1" as="geometry" />
        </mxCell>
        <mxCell id="iYYZ05YK2q3DXUM4ZECD-11" value="EEPROM_writeByte &#39;\0&#39;" style="rounded=0;whiteSpace=wrap;html=1;fillColor=#d5e8d4;strokeColor=#82b366;fontFamily=Calibri;fontSize=12;" parent="1" vertex="1">
          <mxGeometry x="290.19" y="11879" width="153.5" height="83" as="geometry" />
        </mxCell>
        <mxCell id="iYYZ05YK2q3DXUM4ZECD-13" value="EEPROM_writeArray" style="text;html=1;strokeColor=none;fillColor=none;align=center;verticalAlign=middle;whiteSpace=wrap;rounded=0;" parent="1" vertex="1">
          <mxGeometry x="90.24999999999989" y="11388" width="60" height="30" as="geometry" />
        </mxCell>
        <mxCell id="iYYZ05YK2q3DXUM4ZECD-18" value="" style="edgeStyle=orthogonalEdgeStyle;rounded=0;orthogonalLoop=1;jettySize=auto;html=1;" parent="1" source="iYYZ05YK2q3DXUM4ZECD-14" edge="1">
          <mxGeometry relative="1" as="geometry">
            <mxPoint x="120" y="11704" as="targetPoint" />
          </mxGeometry>
        </mxCell>
        <mxCell id="iYYZ05YK2q3DXUM4ZECD-14" value="&lt;br&gt;While string !=&amp;nbsp;&lt;br&gt;&#39;\0&#39;" style="rhombus;whiteSpace=wrap;html=1;fillColor=#fff2cc;strokeColor=#d6b656;" parent="1" vertex="1">
          <mxGeometry x="59.50000000000001" y="11550" width="121" height="117" as="geometry" />
        </mxCell>
        <mxCell id="iYYZ05YK2q3DXUM4ZECD-29" value="" style="edgeStyle=orthogonalEdgeStyle;rounded=0;orthogonalLoop=1;jettySize=auto;html=1;exitX=0.5;exitY=1;exitDx=0;exitDy=0;" parent="1" source="gbX2xrUWrwUsoJZJSO1T-6" target="iYYZ05YK2q3DXUM4ZECD-22" edge="1">
          <mxGeometry relative="1" as="geometry">
            <mxPoint x="121" y="11989" as="sourcePoint" />
          </mxGeometry>
        </mxCell>
        <mxCell id="iYYZ05YK2q3DXUM4ZECD-20" value="EEPROM_Success" style="rounded=1;whiteSpace=wrap;html=1;arcSize=37;fillColor=#d5e8d4;strokeColor=#82b366;fontFamily=Calibri;fontSize=12;" parent="1" vertex="1">
          <mxGeometry x="311.8099999999999" y="12019" width="110" height="40" as="geometry" />
        </mxCell>
        <mxCell id="iYYZ05YK2q3DXUM4ZECD-22" value="EEPROM_ERROR" style="rounded=1;whiteSpace=wrap;html=1;arcSize=37;fillColor=#f8cecc;strokeColor=#b85450;fontFamily=Calibri;fontSize=12;" parent="1" vertex="1">
          <mxGeometry x="65.49999999999989" y="12038" width="110" height="40" as="geometry" />
        </mxCell>
        <mxCell id="iYYZ05YK2q3DXUM4ZECD-24" value="Yes" style="text;html=1;strokeColor=none;fillColor=none;align=center;verticalAlign=middle;whiteSpace=wrap;rounded=0;" parent="1" vertex="1">
          <mxGeometry x="69.5" y="11662" width="33.5" height="35" as="geometry" />
        </mxCell>
        <mxCell id="iYYZ05YK2q3DXUM4ZECD-26" value="" style="endArrow=classic;html=1;rounded=0;edgeStyle=orthogonalEdgeStyle;exitX=1;exitY=0.5;exitDx=0;exitDy=0;" parent="1" source="iYYZ05YK2q3DXUM4ZECD-14" edge="1">
          <mxGeometry width="50" height="50" relative="1" as="geometry">
            <mxPoint x="284" y="11506.066666666666" as="sourcePoint" />
            <mxPoint x="363" y="11878" as="targetPoint" />
          </mxGeometry>
        </mxCell>
        <mxCell id="iYYZ05YK2q3DXUM4ZECD-28" value="" style="endArrow=classic;html=1;rounded=0;edgeStyle=orthogonalEdgeStyle;entryX=0;entryY=0.5;entryDx=0;entryDy=0;exitX=0;exitY=0.5;exitDx=0;exitDy=0;" parent="1" source="gbX2xrUWrwUsoJZJSO1T-6" target="iYYZ05YK2q3DXUM4ZECD-14" edge="1">
          <mxGeometry width="50" height="50" relative="1" as="geometry">
            <mxPoint x="29" y="11897" as="sourcePoint" />
            <mxPoint x="-7" y="11603" as="targetPoint" />
            <Array as="points">
              <mxPoint x="31" y="11912" />
              <mxPoint x="31" y="11608" />
            </Array>
          </mxGeometry>
        </mxCell>
        <mxCell id="iYYZ05YK2q3DXUM4ZECD-31" value="NO" style="text;html=1;strokeColor=none;fillColor=none;align=center;verticalAlign=middle;whiteSpace=wrap;rounded=0;" parent="1" vertex="1">
          <mxGeometry x="185.5" y="11583" width="38.5" height="17" as="geometry" />
        </mxCell>
        <mxCell id="iYYZ05YK2q3DXUM4ZECD-32" value="" style="edgeStyle=orthogonalEdgeStyle;rounded=0;orthogonalLoop=1;jettySize=auto;html=1;" parent="1" source="iYYZ05YK2q3DXUM4ZECD-33" target="iYYZ05YK2q3DXUM4ZECD-38" edge="1">
          <mxGeometry relative="1" as="geometry" />
        </mxCell>
        <mxCell id="iYYZ05YK2q3DXUM4ZECD-33" value="&lt;font style=&quot;font-size: 12px;&quot;&gt;Start&lt;/font&gt;" style="rounded=1;whiteSpace=wrap;html=1;arcSize=37;fillColor=#dae8fc;strokeColor=#6c8ebf;fontFamily=Calibri;fontSize=12;" parent="1" vertex="1">
          <mxGeometry x="-448.99000000000007" y="11419" width="110" height="40" as="geometry" />
        </mxCell>
        <mxCell id="iYYZ05YK2q3DXUM4ZECD-34" value="" style="edgeStyle=orthogonalEdgeStyle;rounded=0;orthogonalLoop=1;jettySize=auto;html=1;" parent="1" source="iYYZ05YK2q3DXUM4ZECD-35" target="iYYZ05YK2q3DXUM4ZECD-41" edge="1">
          <mxGeometry relative="1" as="geometry" />
        </mxCell>
        <mxCell id="iYYZ05YK2q3DXUM4ZECD-35" value="Write the last char to array&#39;\0&#39;" style="rounded=0;whiteSpace=wrap;html=1;fillColor=#d5e8d4;strokeColor=#82b366;fontFamily=Calibri;fontSize=12;" parent="1" vertex="1">
          <mxGeometry x="-223.66999999999996" y="11871" width="153.5" height="83" as="geometry" />
        </mxCell>
        <mxCell id="iYYZ05YK2q3DXUM4ZECD-36" value="EEPROM_readArray" style="text;html=1;strokeColor=none;fillColor=none;align=center;verticalAlign=middle;whiteSpace=wrap;rounded=0;" parent="1" vertex="1">
          <mxGeometry x="-423.61000000000007" y="11380" width="60" height="30" as="geometry" />
        </mxCell>
        <mxCell id="iYYZ05YK2q3DXUM4ZECD-37" value="" style="edgeStyle=orthogonalEdgeStyle;rounded=0;orthogonalLoop=1;jettySize=auto;html=1;" parent="1" source="iYYZ05YK2q3DXUM4ZECD-38" edge="1">
          <mxGeometry relative="1" as="geometry">
            <mxPoint x="-394" y="11702" as="targetPoint" />
          </mxGeometry>
        </mxCell>
        <mxCell id="iYYZ05YK2q3DXUM4ZECD-38" value="&lt;br&gt;While string !=&amp;nbsp;&lt;br&gt;&#39;\0&#39;" style="rhombus;whiteSpace=wrap;html=1;fillColor=#fff2cc;strokeColor=#d6b656;" parent="1" vertex="1">
          <mxGeometry x="-454.35999999999996" y="11542" width="121" height="117" as="geometry" />
        </mxCell>
        <mxCell id="iYYZ05YK2q3DXUM4ZECD-41" value="EEPROM_Success" style="rounded=1;whiteSpace=wrap;html=1;arcSize=37;fillColor=#d5e8d4;strokeColor=#82b366;fontFamily=Calibri;fontSize=12;" parent="1" vertex="1">
          <mxGeometry x="-202.05000000000007" y="12011" width="110" height="40" as="geometry" />
        </mxCell>
        <mxCell id="iYYZ05YK2q3DXUM4ZECD-42" value="EEPROM_ERROR" style="rounded=1;whiteSpace=wrap;html=1;arcSize=37;fillColor=#f8cecc;strokeColor=#b85450;fontFamily=Calibri;fontSize=12;" parent="1" vertex="1">
          <mxGeometry x="-448.36000000000007" y="12012" width="110" height="40" as="geometry" />
        </mxCell>
        <mxCell id="iYYZ05YK2q3DXUM4ZECD-43" value="Yes" style="text;html=1;strokeColor=none;fillColor=none;align=center;verticalAlign=middle;whiteSpace=wrap;rounded=0;" parent="1" vertex="1">
          <mxGeometry x="-431.07" y="11659" width="35.64" height="17" as="geometry" />
        </mxCell>
        <mxCell id="iYYZ05YK2q3DXUM4ZECD-44" value="" style="endArrow=classic;html=1;rounded=0;edgeStyle=orthogonalEdgeStyle;exitX=1;exitY=0.5;exitDx=0;exitDy=0;" parent="1" source="iYYZ05YK2q3DXUM4ZECD-38" edge="1">
          <mxGeometry width="50" height="50" relative="1" as="geometry">
            <mxPoint x="-229.85999999999996" y="11498.066666666666" as="sourcePoint" />
            <mxPoint x="-150.85999999999996" y="11870" as="targetPoint" />
          </mxGeometry>
        </mxCell>
        <mxCell id="iYYZ05YK2q3DXUM4ZECD-46" value="NO" style="text;html=1;strokeColor=none;fillColor=none;align=center;verticalAlign=middle;whiteSpace=wrap;rounded=0;" parent="1" vertex="1">
          <mxGeometry x="-334.35999999999996" y="11523" width="60" height="124" as="geometry" />
        </mxCell>
        <mxCell id="iYYZ05YK2q3DXUM4ZECD-47" value="END" style="rounded=1;whiteSpace=wrap;html=1;arcSize=37;fillColor=#dae8fc;strokeColor=#6c8ebf;fontFamily=Calibri;fontSize=12;" parent="1" vertex="1">
          <mxGeometry x="744.9999999999999" y="11493" width="110" height="40" as="geometry" />
        </mxCell>
        <mxCell id="iYYZ05YK2q3DXUM4ZECD-48" value="&lt;font style=&quot;font-size: 12px;&quot;&gt;End&lt;/font&gt;" style="rounded=1;whiteSpace=wrap;html=1;arcSize=37;fillColor=#dae8fc;strokeColor=#6c8ebf;fontFamily=Calibri;fontSize=12;" parent="1" vertex="1">
          <mxGeometry x="700" y="9034" width="110" height="40" as="geometry" />
        </mxCell>
        <mxCell id="iYYZ05YK2q3DXUM4ZECD-49" value="&lt;font style=&quot;font-size: 12px;&quot;&gt;End&lt;/font&gt;" style="rounded=1;whiteSpace=wrap;html=1;arcSize=37;fillColor=#dae8fc;strokeColor=#6c8ebf;fontFamily=Calibri;fontSize=12;" parent="1" vertex="1">
          <mxGeometry x="290.19" y="9034" width="110" height="40" as="geometry" />
        </mxCell>
        <mxCell id="iYYZ05YK2q3DXUM4ZECD-50" value="&lt;font style=&quot;font-size: 12px;&quot;&gt;End&lt;/font&gt;" style="rounded=1;whiteSpace=wrap;html=1;arcSize=37;fillColor=#dae8fc;strokeColor=#6c8ebf;fontFamily=Calibri;fontSize=12;" parent="1" vertex="1">
          <mxGeometry x="473.31" y="9037" width="110" height="40" as="geometry" />
        </mxCell>
        <mxCell id="iYYZ05YK2q3DXUM4ZECD-51" value="&lt;font style=&quot;font-size: 12px;&quot;&gt;End&lt;/font&gt;" style="rounded=1;whiteSpace=wrap;html=1;arcSize=37;fillColor=#dae8fc;strokeColor=#6c8ebf;fontFamily=Calibri;fontSize=12;" parent="1" vertex="1">
          <mxGeometry x="69.87" y="8908" width="110" height="40" as="geometry" />
        </mxCell>
        <mxCell id="ofZ-ipCJq_AC3wgCMa2j-1" value="Put data on TWI &lt;br&gt;data Register" style="rounded=0;whiteSpace=wrap;html=1;fillColor=#d5e8d4;strokeColor=#82b366;fontFamily=Calibri;fontSize=12;" parent="1" vertex="1">
          <mxGeometry x="675.44" y="8572" width="153.5" height="83" as="geometry" />
        </mxCell>
        <mxCell id="ofZ-ipCJq_AC3wgCMa2j-2" value="Clear the TWINT Flag" style="rounded=0;whiteSpace=wrap;html=1;fillColor=#d5e8d4;strokeColor=#82b366;fontFamily=Calibri;fontSize=12;" parent="1" vertex="1">
          <mxGeometry x="675.44" y="8679" width="153.5" height="83" as="geometry" />
        </mxCell>
        <mxCell id="ofZ-ipCJq_AC3wgCMa2j-3" value="Ennable the TWI Module" style="rounded=0;whiteSpace=wrap;html=1;fillColor=#d5e8d4;strokeColor=#82b366;fontFamily=Calibri;fontSize=12;" parent="1" vertex="1">
          <mxGeometry x="675.44" y="8796" width="153.5" height="83" as="geometry" />
        </mxCell>
        <mxCell id="ofZ-ipCJq_AC3wgCMa2j-4" value="Wait until the TWNT Flage is set to one" style="rounded=0;whiteSpace=wrap;html=1;fillColor=#d5e8d4;strokeColor=#82b366;fontFamily=Calibri;fontSize=12;" parent="1" vertex="1">
          <mxGeometry x="675.06" y="8912" width="153.5" height="83" as="geometry" />
        </mxCell>
        <mxCell id="ofZ-ipCJq_AC3wgCMa2j-5" value="Clear the TWINT Flag" style="rounded=0;whiteSpace=wrap;html=1;fillColor=#d5e8d4;strokeColor=#82b366;fontFamily=Calibri;fontSize=12;" parent="1" vertex="1">
          <mxGeometry x="451.94" y="8572" width="153.5" height="83" as="geometry" />
        </mxCell>
        <mxCell id="ofZ-ipCJq_AC3wgCMa2j-6" value="Send the stop bit" style="rounded=0;whiteSpace=wrap;html=1;fillColor=#d5e8d4;strokeColor=#82b366;fontFamily=Calibri;fontSize=12;" parent="1" vertex="1">
          <mxGeometry x="451.94" y="8679" width="153.5" height="83" as="geometry" />
        </mxCell>
        <mxCell id="ofZ-ipCJq_AC3wgCMa2j-7" value="Ennable the TWI Module" style="rounded=0;whiteSpace=wrap;html=1;fillColor=#d5e8d4;strokeColor=#82b366;fontFamily=Calibri;fontSize=12;" parent="1" vertex="1">
          <mxGeometry x="451.94" y="8796" width="153.5" height="83" as="geometry" />
        </mxCell>
        <mxCell id="ofZ-ipCJq_AC3wgCMa2j-8" value="Wait until the TWNT Flage is set to one" style="rounded=0;whiteSpace=wrap;html=1;fillColor=#d5e8d4;strokeColor=#82b366;fontFamily=Calibri;fontSize=12;" parent="1" vertex="1">
          <mxGeometry x="451.56" y="8912" width="153.5" height="83" as="geometry" />
        </mxCell>
        <mxCell id="ofZ-ipCJq_AC3wgCMa2j-9" value="Wait until the TWNT Flage is set to one" style="rounded=0;whiteSpace=wrap;html=1;fillColor=#d5e8d4;strokeColor=#82b366;fontFamily=Calibri;fontSize=12;" parent="1" vertex="1">
          <mxGeometry x="266" y="8912" width="153.5" height="83" as="geometry" />
        </mxCell>
        <mxCell id="ofZ-ipCJq_AC3wgCMa2j-10" value="" style="endArrow=classic;html=1;rounded=0;exitX=1;exitY=0.5;exitDx=0;exitDy=0;entryX=0;entryY=0.5;entryDx=0;entryDy=0;" parent="1" source="lm0oPZzjpv0PWrZdyHH7-177" target="rYo-Iy0mG2DSL3KK2n9q-26" edge="1">
          <mxGeometry width="50" height="50" relative="1" as="geometry">
            <mxPoint x="-60" y="10603" as="sourcePoint" />
            <mxPoint x="-221" y="10336" as="targetPoint" />
            <Array as="points">
              <mxPoint x="-221" y="10602" />
              <mxPoint x="-221" y="10334" />
            </Array>
          </mxGeometry>
        </mxCell>
        <mxCell id="ofZ-ipCJq_AC3wgCMa2j-14" value="" style="endArrow=classic;html=1;rounded=0;exitX=1;exitY=0.5;exitDx=0;exitDy=0;" parent="1" source="rYo-Iy0mG2DSL3KK2n9q-56" edge="1">
          <mxGeometry width="50" height="50" relative="1" as="geometry">
            <mxPoint x="812" y="10508" as="sourcePoint" />
            <mxPoint x="759" y="10484" as="targetPoint" />
          </mxGeometry>
        </mxCell>
        <mxCell id="ofZ-ipCJq_AC3wgCMa2j-15" value="write the device address and R/W = 1" style="rounded=0;whiteSpace=wrap;html=1;fillColor=#d5e8d4;strokeColor=#82b366;fontFamily=Calibri;fontSize=12;" parent="1" vertex="1">
          <mxGeometry x="890.88" y="10277" width="153.5" height="44" as="geometry" />
        </mxCell>
        <mxCell id="ofZ-ipCJq_AC3wgCMa2j-16" value="TWSR != START" style="rhombus;whiteSpace=wrap;html=1;fillColor=#fff2cc;strokeColor=#d6b656;" parent="1" vertex="1">
          <mxGeometry x="-570.5" y="10193.5" width="123" height="117" as="geometry" />
        </mxCell>
        <mxCell id="ofZ-ipCJq_AC3wgCMa2j-17" value="&amp;nbsp;TWSR != SLA_W_ACK" style="rhombus;whiteSpace=wrap;html=1;fillColor=#fff2cc;strokeColor=#d6b656;" parent="1" vertex="1">
          <mxGeometry x="-570.5" y="10434" width="121" height="117" as="geometry" />
        </mxCell>
        <mxCell id="ofZ-ipCJq_AC3wgCMa2j-18" value="&amp;nbsp;TWSR != MT_DATA_ACK" style="rhombus;whiteSpace=wrap;html=1;fillColor=#fff2cc;strokeColor=#d6b656;" parent="1" vertex="1">
          <mxGeometry x="-176.12" y="10275.5" width="121" height="117" as="geometry" />
        </mxCell>
        <mxCell id="ofZ-ipCJq_AC3wgCMa2j-21" value="Mask the TWI Status register to get the status bits" style="rounded=0;whiteSpace=wrap;html=1;fillColor=#d5e8d4;strokeColor=#82b366;fontFamily=Calibri;fontSize=12;" parent="1" vertex="1">
          <mxGeometry x="530.38" y="9242" width="153.5" height="83" as="geometry" />
        </mxCell>
        <mxCell id="ofZ-ipCJq_AC3wgCMa2j-22" value="Return the TWI&amp;nbsp;&lt;br&gt;status value" style="rounded=0;whiteSpace=wrap;html=1;fillColor=#d5e8d4;strokeColor=#82b366;fontFamily=Calibri;fontSize=12;" parent="1" vertex="1">
          <mxGeometry x="530" y="9399" width="153.5" height="83" as="geometry" />
        </mxCell>
        <mxCell id="ofZ-ipCJq_AC3wgCMa2j-23" value="Clear the TWINT Flag" style="rounded=0;whiteSpace=wrap;html=1;fillColor=#d5e8d4;strokeColor=#82b366;fontFamily=Calibri;fontSize=12;" parent="1" vertex="1">
          <mxGeometry x="238.5" y="9255" width="153.5" height="83" as="geometry" />
        </mxCell>
        <mxCell id="ofZ-ipCJq_AC3wgCMa2j-24" value="Clear the TWINT Flag" style="rounded=0;whiteSpace=wrap;html=1;fillColor=#d5e8d4;strokeColor=#82b366;fontFamily=Calibri;fontSize=12;" parent="1" vertex="1">
          <mxGeometry x="43.5" y="9255" width="153.5" height="83" as="geometry" />
        </mxCell>
        <mxCell id="ofZ-ipCJq_AC3wgCMa2j-25" value="Enable sending ACK after reading or receiving data" style="rounded=0;whiteSpace=wrap;html=1;fillColor=#d5e8d4;strokeColor=#82b366;fontFamily=Calibri;fontSize=12;" parent="1" vertex="1">
          <mxGeometry x="43.5" y="9363" width="153.5" height="83" as="geometry" />
        </mxCell>
        <mxCell id="ofZ-ipCJq_AC3wgCMa2j-26" value="Ennable the TWI Module" style="rounded=0;whiteSpace=wrap;html=1;fillColor=#d5e8d4;strokeColor=#82b366;fontFamily=Calibri;fontSize=12;" parent="1" vertex="1">
          <mxGeometry x="238.5" y="9411" width="153.5" height="83" as="geometry" />
        </mxCell>
        <mxCell id="ofZ-ipCJq_AC3wgCMa2j-27" value="Wait until the TWNT Flage is set to one" style="rounded=0;whiteSpace=wrap;html=1;fillColor=#d5e8d4;strokeColor=#82b366;fontFamily=Calibri;fontSize=12;" parent="1" vertex="1">
          <mxGeometry x="238.1199999999999" y="9562" width="153.5" height="83" as="geometry" />
        </mxCell>
        <mxCell id="gbX2xrUWrwUsoJZJSO1T-1" value="EEPROM_writeByte" style="swimlane;whiteSpace=wrap;html=1;startSize=23;fillColor=#ffe6cc;strokeColor=#d79b00;" parent="1" vertex="1">
          <mxGeometry x="-755" y="9936" width="949" height="926" as="geometry" />
        </mxCell>
        <mxCell id="gbX2xrUWrwUsoJZJSO1T-2" value="EEPROM_readByte" style="swimlane;whiteSpace=wrap;html=1;startSize=23;fillColor=#ffe6cc;strokeColor=#d79b00;" parent="1" vertex="1">
          <mxGeometry x="350.19" y="9934" width="949" height="1150" as="geometry" />
        </mxCell>
        <mxCell id="gbX2xrUWrwUsoJZJSO1T-7" value="" style="edgeStyle=orthogonalEdgeStyle;rounded=0;orthogonalLoop=1;jettySize=auto;html=1;" parent="1" target="gbX2xrUWrwUsoJZJSO1T-6" edge="1">
          <mxGeometry relative="1" as="geometry">
            <mxPoint x="120" y="11822" as="sourcePoint" />
          </mxGeometry>
        </mxCell>
        <mxCell id="gbX2xrUWrwUsoJZJSO1T-12" value="" style="edgeStyle=orthogonalEdgeStyle;rounded=0;orthogonalLoop=1;jettySize=auto;html=1;" parent="1" source="gbX2xrUWrwUsoJZJSO1T-4" target="gbX2xrUWrwUsoJZJSO1T-10" edge="1">
          <mxGeometry relative="1" as="geometry" />
        </mxCell>
        <mxCell id="gbX2xrUWrwUsoJZJSO1T-4" value="EEPROM_writeByte" style="shape=process;whiteSpace=wrap;html=1;backgroundOutline=1;fillColor=#ffe6cc;strokeColor=#d79b00;" parent="1" vertex="1">
          <mxGeometry x="49.37" y="11704" width="142.25" height="60" as="geometry" />
        </mxCell>
        <mxCell id="gbX2xrUWrwUsoJZJSO1T-6" value="Returned_Value&lt;br&gt;&amp;nbsp;==&lt;br&gt;ERORR" style="rhombus;whiteSpace=wrap;html=1;fillColor=#fff2cc;strokeColor=#d6b656;" parent="1" vertex="1">
          <mxGeometry x="59.5" y="11854" width="121" height="117" as="geometry" />
        </mxCell>
        <mxCell id="gbX2xrUWrwUsoJZJSO1T-8" value="Yes" style="text;html=1;strokeColor=none;fillColor=none;align=center;verticalAlign=middle;whiteSpace=wrap;rounded=0;" parent="1" vertex="1">
          <mxGeometry x="84" y="11974" width="33.5" height="35" as="geometry" />
        </mxCell>
        <mxCell id="gbX2xrUWrwUsoJZJSO1T-9" value="NO" style="text;html=1;strokeColor=none;fillColor=none;align=center;verticalAlign=middle;whiteSpace=wrap;rounded=0;" parent="1" vertex="1">
          <mxGeometry x="-9" y="11870" width="38.5" height="17" as="geometry" />
        </mxCell>
        <mxCell id="gbX2xrUWrwUsoJZJSO1T-10" value="Increment i" style="rounded=0;whiteSpace=wrap;html=1;fillColor=#d5e8d4;strokeColor=#82b366;fontFamily=Calibri;fontSize=12;" parent="1" vertex="1">
          <mxGeometry x="51" y="11801" width="139.25" height="20" as="geometry" />
        </mxCell>
        <mxCell id="gbX2xrUWrwUsoJZJSO1T-13" value="" style="endArrow=classic;html=1;rounded=0;edgeStyle=orthogonalEdgeStyle;exitX=0;exitY=0.5;exitDx=0;exitDy=0;" parent="1" source="gbX2xrUWrwUsoJZJSO1T-17" edge="1">
          <mxGeometry width="50" height="50" relative="1" as="geometry">
            <mxPoint x="-485" y="11897" as="sourcePoint" />
            <mxPoint x="-454" y="11601" as="targetPoint" />
            <Array as="points">
              <mxPoint x="-483" y="11912" />
              <mxPoint x="-483" y="11601" />
            </Array>
          </mxGeometry>
        </mxCell>
        <mxCell id="gbX2xrUWrwUsoJZJSO1T-14" value="" style="edgeStyle=orthogonalEdgeStyle;rounded=0;orthogonalLoop=1;jettySize=auto;html=1;" parent="1" target="gbX2xrUWrwUsoJZJSO1T-17" edge="1">
          <mxGeometry relative="1" as="geometry">
            <mxPoint x="-394" y="11822" as="sourcePoint" />
          </mxGeometry>
        </mxCell>
        <mxCell id="gbX2xrUWrwUsoJZJSO1T-15" value="" style="edgeStyle=orthogonalEdgeStyle;rounded=0;orthogonalLoop=1;jettySize=auto;html=1;" parent="1" source="gbX2xrUWrwUsoJZJSO1T-16" target="gbX2xrUWrwUsoJZJSO1T-20" edge="1">
          <mxGeometry relative="1" as="geometry" />
        </mxCell>
        <mxCell id="gbX2xrUWrwUsoJZJSO1T-16" value="EEPROM_readByte&lt;br&gt;(passing the new static array)" style="shape=process;whiteSpace=wrap;html=1;backgroundOutline=1;fillColor=#ffe6cc;strokeColor=#d79b00;" parent="1" vertex="1">
          <mxGeometry x="-464.63" y="11704" width="142.25" height="60" as="geometry" />
        </mxCell>
        <mxCell id="gbX2xrUWrwUsoJZJSO1T-21" value="" style="edgeStyle=orthogonalEdgeStyle;rounded=0;orthogonalLoop=1;jettySize=auto;html=1;" parent="1" source="gbX2xrUWrwUsoJZJSO1T-17" target="iYYZ05YK2q3DXUM4ZECD-42" edge="1">
          <mxGeometry relative="1" as="geometry" />
        </mxCell>
        <mxCell id="gbX2xrUWrwUsoJZJSO1T-17" value="Returned_Value&lt;br&gt;&amp;nbsp;==&lt;br&gt;ERORR" style="rhombus;whiteSpace=wrap;html=1;fillColor=#fff2cc;strokeColor=#d6b656;" parent="1" vertex="1">
          <mxGeometry x="-454.5" y="11854" width="121" height="117" as="geometry" />
        </mxCell>
        <mxCell id="gbX2xrUWrwUsoJZJSO1T-18" value="Yes" style="text;html=1;strokeColor=none;fillColor=none;align=center;verticalAlign=middle;whiteSpace=wrap;rounded=0;" parent="1" vertex="1">
          <mxGeometry x="-430" y="11974" width="33.5" height="35" as="geometry" />
        </mxCell>
        <mxCell id="gbX2xrUWrwUsoJZJSO1T-19" value="NO" style="text;html=1;strokeColor=none;fillColor=none;align=center;verticalAlign=middle;whiteSpace=wrap;rounded=0;" parent="1" vertex="1">
          <mxGeometry x="-523" y="11870" width="38.5" height="17" as="geometry" />
        </mxCell>
        <mxCell id="gbX2xrUWrwUsoJZJSO1T-20" value="Increment i" style="rounded=0;whiteSpace=wrap;html=1;fillColor=#d5e8d4;strokeColor=#82b366;fontFamily=Calibri;fontSize=12;" parent="1" vertex="1">
          <mxGeometry x="-463" y="11801" width="139.25" height="20" as="geometry" />
        </mxCell>
      </root>
    </mxGraphModel>
  </diagram>
</mxfile>
